<svg width="120" height="120" viewBox="0 0 120 120" fill="none" xmlns="http://www.w3.org/2000/svg">
<path d="M57.5224 1.95477C58.9753 0.808494 61.0247 0.808496 62.4776 1.95477L66.6872 5.27602C67.7807 6.13875 69.2442 6.37054 70.5508 5.88795L75.5806 4.03008C77.3166 3.38887 79.2658 4.0222 80.2933 5.56133L83.2705 10.0209C84.0439 11.1793 85.3642 11.852 86.7559 11.7967L92.1137 11.5841C93.9629 11.5107 95.6209 12.7154 96.1226 14.4967L97.576 19.658C97.9535 20.9987 99.0013 22.0465 100.342 22.424L105.503 23.8774C107.285 24.3791 108.489 26.0371 108.416 27.8863L108.203 33.2441C108.148 34.6358 108.821 35.9561 109.979 36.7295L114.439 39.7067C115.978 40.7342 116.611 42.6834 115.97 44.4194L114.112 49.4493C113.629 50.7558 113.861 52.2193 114.724 53.3128L118.045 57.5224C119.192 58.9753 119.192 61.0247 118.045 62.4776L114.724 66.6872C113.861 67.7807 113.629 69.2442 114.112 70.5507L115.97 75.5806C116.611 77.3166 115.978 79.2658 114.439 80.2933L109.979 83.2705C108.821 84.0439 108.148 85.3642 108.203 86.7559L108.416 92.1137C108.489 93.9629 107.285 95.6209 105.503 96.1226L100.342 97.576C99.0013 97.9535 97.9535 99.0013 97.576 100.342L96.1226 105.503C95.6209 107.285 93.9629 108.489 92.1137 108.416L86.7559 108.203C85.3642 108.148 84.0439 108.821 83.2705 109.979L80.2933 114.439C79.2658 115.978 77.3166 116.611 75.5806 115.97L70.5508 114.112C69.2442 113.629 67.7807 113.861 66.6872 114.724L62.4776 118.045C61.0247 119.192 58.9753 119.192 57.5224 118.045L53.3128 114.724C52.2193 113.861 50.7558 113.629 49.4493 114.112L44.4194 115.97C42.6834 116.611 40.7342 115.978 39.7067 114.439L36.7295 109.979C35.9561 108.821 34.6358 108.148 33.2441 108.203L27.8863 108.416C26.0371 108.489 24.3791 107.285 23.8774 105.503L22.424 100.342C22.0465 99.0013 20.9987 97.9535 19.658 97.576L14.4967 96.1226C12.7154 95.6209 11.5107 93.9629 11.5841 92.1137L11.7967 86.7559C11.852 85.3642 11.1793 84.0439 10.0209 83.2705L5.56133 80.2933C4.0222 79.2658 3.38887 77.3166 4.03008 75.5806L5.88795 70.5508C6.37054 69.2442 6.13875 67.7807 5.27602 66.6872L1.95477 62.4776C0.808494 61.0247 0.808496 58.9753 1.95477 57.5224L5.27602 53.3128C6.13875 52.2193 6.37054 50.7558 5.88795 49.4493L4.03008 44.4194C3.38887 42.6834 4.0222 40.7342 5.56133 39.7067L10.0209 36.7295C11.1793 35.9561 11.852 34.6358 11.7967 33.2441L11.5841 27.8863C11.5107 26.0371 12.7154 24.3791 14.4967 23.8774L19.658 22.424C20.9987 22.0465 22.0465 20.9987 22.424 19.658L23.8774 14.4967C24.3791 12.7154 26.0371 11.5107 27.8863 11.5841L33.2441 11.7967C34.6358 11.852 35.9561 11.1793 36.7295 10.0209L39.7067 5.56133C40.7342 4.0222 42.6834 3.38887 44.4194 4.03008L49.4493 5.88795C50.7558 6.37055 52.2193 6.13875 53.3128 5.27602L57.5224 1.95477Z" fill="#3B4CEE"/>
<path d="M59.9998 93.3334C78.4092 93.3334 93.3332 78.4094 93.3332 60.0001C93.3332 41.5906 78.4092 26.6667 59.9998 26.6667C41.5903 26.6667 26.6665 41.5906 26.6665 60.0001C26.6665 78.4094 41.5903 93.3334 59.9998 93.3334ZM78.1902 51.5238L56.6665 73.0474L42.6428 59.0237L47.3569 54.3097L56.6665 63.6194L73.4762 46.8097L78.1902 51.5238Z" fill="white"/>
</svg>
